<svg width="18" height="15" viewBox="0 0 18 15" fill="none" xmlns="http://www.w3.org/2000/svg">
<g clip-path="url(#clip0_110_366)">
<path d="M16.3385 0.333255L1.66179 0.333255C0.54262 0.333255 -0.137381 1.56575 0.471786 2.51492L7.81012 14.0466C7.93789 14.2485 8.11464 14.4148 8.32394 14.53C8.53324 14.6452 8.76828 14.7057 9.00721 14.7057C9.24613 14.7057 9.48117 14.6452 9.69047 14.53C9.89977 14.4148 10.0765 14.2485 10.2043 14.0466L17.5285 2.51492C17.6667 2.30124 17.7446 2.05422 17.7541 1.79992C17.7636 1.54563 17.7043 1.29347 17.5825 1.07007C17.4606 0.846663 17.2807 0.66029 17.0618 0.530608C16.8428 0.400926 16.5929 0.332744 16.3385 0.333255Z" fill="#1C5B89"/>
</g>
<defs>
<clipPath id="clip0_110_366">
<rect width="15" height="18" fill="white" transform="matrix(0 1 -1 0 18 0)"/>
</clipPath>
</defs>
</svg>
