<svg width="55" height="55" viewBox="0 0 55 55" fill="none" xmlns="http://www.w3.org/2000/svg">
<path d="M50.4166 41.2614C50.4166 42.5218 49.3945 43.5416 48.1364 43.5416H29.7801C29.1754 43.5416 28.5954 43.3013 28.1678 42.8737C27.7402 42.4461 27.4999 41.8661 27.4999 41.2614C27.4999 40.6566 27.7402 40.0766 28.1678 39.649C28.5954 39.2214 29.1754 38.9812 29.7801 38.9812H48.1364C49.3968 38.9812 50.4166 40.001 50.4166 41.2614ZM50.4166 27.4999C50.4166 28.7603 49.3945 29.7801 48.1364 29.7801H6.86346C6.25871 29.7801 5.67873 29.5399 5.25111 29.1123C4.82349 28.6846 4.58325 28.1047 4.58325 27.4999C4.58325 26.8952 4.82349 26.3152 5.25111 25.8876C5.67873 25.4599 6.25871 25.2197 6.86346 25.2197H48.1364C49.3968 25.2197 50.4166 26.2418 50.4166 27.4999ZM48.1364 16.0187C48.7411 16.0187 49.3211 15.7784 49.7487 15.3508C50.1763 14.9232 50.4166 14.3432 50.4166 13.7385C50.4166 13.1337 50.1763 12.5537 49.7487 12.1261C49.3211 11.6985 48.7411 11.4583 48.1364 11.4583H20.6135C20.314 11.4583 20.0175 11.5172 19.7409 11.6318C19.4642 11.7464 19.2128 11.9144 19.0011 12.1261C18.7894 12.3378 18.6214 12.5892 18.5068 12.8659C18.3922 13.1425 18.3333 13.439 18.3333 13.7385C18.3333 14.0379 18.3922 14.3344 18.5068 14.6111C18.6214 14.8877 18.7894 15.1391 19.0011 15.3508C19.2128 15.5625 19.4642 15.7305 19.7409 15.8451C20.0175 15.9597 20.314 16.0187 20.6135 16.0187H48.1364Z" fill="#6F68E1"/>
</svg>
