<svg width="55" height="55" viewBox="0 0 55 55" fill="none" xmlns="http://www.w3.org/2000/svg">
<path d="M50.4166 41.2614C50.4166 42.5219 49.3946 43.5417 48.1364 43.5417H29.7802C29.1754 43.5417 28.5955 43.3014 28.1678 42.8738C27.7402 42.4462 27.5 41.8662 27.5 41.2614C27.5 40.6567 27.7402 40.0767 28.1678 39.6491C28.5955 39.2215 29.1754 38.9812 29.7802 38.9812H48.1364C49.3969 38.9812 50.4166 40.001 50.4166 41.2614ZM50.4166 27.5C50.4166 28.7604 49.3946 29.7802 48.1364 29.7802H6.86352C6.25877 29.7802 5.67879 29.54 5.25117 29.1123C4.82355 28.6847 4.58331 28.1047 4.58331 27.5C4.58331 26.8952 4.82355 26.3153 5.25117 25.8876C5.67879 25.46 6.25877 25.2198 6.86352 25.2198H48.1364C49.3969 25.2198 50.4166 26.2419 50.4166 27.5ZM48.1364 16.0187C48.7412 16.0187 49.3212 15.7785 49.7488 15.3509C50.1764 14.9233 50.4166 14.3433 50.4166 13.7385C50.4166 13.1338 50.1764 12.5538 49.7488 12.1262C49.3212 11.6986 48.7412 11.4583 48.1364 11.4583H20.6135C20.3141 11.4583 20.0176 11.5173 19.7409 11.6319C19.4643 11.7465 19.2129 11.9144 19.0012 12.1262C18.7894 12.3379 18.6215 12.5893 18.5069 12.8659C18.3923 13.1426 18.3333 13.4391 18.3333 13.7385C18.3333 14.038 18.3923 14.3345 18.5069 14.6111C18.6215 14.8878 18.7894 15.1392 19.0012 15.3509C19.2129 15.5626 19.4643 15.7306 19.7409 15.8452C20.0176 15.9598 20.3141 16.0187 20.6135 16.0187H48.1364Z" fill="#6F68E1"/>
</svg>
