<svg width="31" height="31" viewBox="0 0 31 31" fill="none" xmlns="http://www.w3.org/2000/svg">
<path fill-rule="evenodd" clip-rule="evenodd" d="M21.8072 19.7277L29.6531 27.5735C29.9288 27.8495 30.0837 28.2237 30.0836 28.6138C30.0834 29.0039 29.9283 29.378 29.6523 29.6538C29.3764 29.9296 29.0022 30.0844 28.612 30.0843C28.2219 30.0842 27.8478 29.929 27.572 29.6531L19.7262 21.8072C17.3808 23.6239 14.4314 24.4787 11.478 24.198C8.5247 23.9172 5.78924 22.5219 3.82815 20.2958C1.86706 18.0698 0.827641 15.1803 0.921355 12.2151C1.01507 9.24994 2.23487 6.43183 4.33262 4.33409C6.43037 2.23634 9.24848 1.01653 12.2137 0.92282C15.1788 0.829106 18.0684 1.86852 20.2944 3.82961C22.5204 5.79071 23.9157 8.52617 24.1965 11.4795C24.4773 14.4329 23.6224 17.3822 21.8058 19.7277H21.8072ZM12.5833 21.3333C14.9039 21.3333 17.1295 20.4114 18.7705 18.7705C20.4114 17.1295 21.3333 14.9039 21.3333 12.5833C21.3333 10.2626 20.4114 8.03705 18.7705 6.3961C17.1295 4.75516 14.9039 3.83329 12.5833 3.83329C10.2626 3.83329 8.03704 4.75516 6.3961 6.3961C4.75515 8.03705 3.83328 10.2626 3.83328 12.5833C3.83328 14.9039 4.75515 17.1295 6.3961 18.7705C8.03704 20.4114 10.2626 21.3333 12.5833 21.3333Z" fill="white"/>
</svg>
